<?xml version="1.0" encoding="utf-8"?>
<!-- Generator: Adobe Illustrator 22.0.1, SVG Export Plug-In . SVG Version: 6.00 Build 0)  -->
<svg version="1.1" xmlns="http://www.w3.org/2000/svg" xmlns:xlink="http://www.w3.org/1999/xlink" x="0px" y="0px"
	 viewBox="0 0 523 287" style="enable-background:new 0 0 523 287;" xml:space="preserve">
<style type="text/css">
	.st0{fill:#FEFEFE;}
	.st1{fill:none;stroke:#3E2B2F;stroke-width:2.7105;}
	.st2{fill:#3E2B2F;}
	.st3{fill:#3E282E;}
	.st4{fill:#1E1E1C;}
	.st5{fill:#F7F6F5;}
	.st6{fill:#C1772F;}
	.st7{fill:#99D0C5;}
	.st8{fill:#C1BBB7;}
	.st9{enable-background:new    ;}
	.st10{fill:#FFFFFF;}
	.st11{fill:none;stroke:#020203;stroke-width:2.3731;stroke-miterlimit:10;}
	.st12{clip-path:url(#SVGID_2_);}
	.st13{clip-path:url(#SVGID_4_);}
	.st14{clip-path:url(#SVGID_6_);}
	.st15{clip-path:url(#SVGID_8_);}
	.st16{clip-path:url(#SVGID_10_);}
	.st17{clip-path:url(#SVGID_12_);}
	.st18{clip-path:url(#SVGID_14_);}
	.st19{clip-path:url(#SVGID_16_);}
	.st20{clip-path:url(#SVGID_18_);}
	.st21{clip-path:url(#SVGID_20_);}
	.st22{clip-path:url(#SVGID_22_);}
	.st23{clip-path:url(#SVGID_24_);}
	.st24{clip-path:url(#SVGID_26_);}
	.st25{clip-path:url(#SVGID_28_);}
	.st26{clip-path:url(#SVGID_30_);}
	.st27{clip-path:url(#SVGID_22_);fill:none;}
	.st28{fill:none;}
</style>
<g id="Layer_2">
</g>
<g id="Layer_1">
	<path class="st0" d="M210.9,272.2"/>
	<line class="st1" x1="210.9" y1="272.2" x2="210.9" y2="272.2"/>
	<path class="st2" d="M47.1,137.4h26.1V176c5.6-5,15.8-10.6,27.7-10.6c28.2,0,50,23.2,50,52.1c0,28.6-23,52.1-51.8,52.1
		c-28.6,0-52-23.4-52-52.1C47.1,217.5,47.1,137.4,47.1,137.4z M99.1,244.7c14.7,0,26.4-11.7,26.4-26.4S113.8,192,99.1,192
		c-14.4,0-26.3,11.7-26.3,26.4C72.8,233,84.7,244.7,99.1,244.7"/>
	<path class="st3" d="M160,217.5c0-28.9,23-52.1,51.9-52.1c28.6,0,51.9,23.2,51.9,52.1c0,28.6-23.2,52.1-52.1,52.1
		C183,269.5,160,246.1,160,217.5 M212.1,244.7c14.4,0,26.3-11.7,26.3-26.4S226.5,192,212.1,192c-14.7,0-26.4,11.7-26.4,26.4
		C185.7,233,197.4,244.7,212.1,244.7"/>
	<path class="st4" d="M311.3,211.9"/>
	<path class="st2" d="M165.4,257.5c-4.1-4.7-7.4-9.9-9.8-15.8h-0.1c-2.5,5.8-5.8,11-9.9,15.8"/>
	<path class="st5" d="M98.6,198.3c-11.3,0-20.5,9.2-20.5,20.5s9.2,20.5,20.5,20.5s20.5-9.2,20.5-20.5S109.9,198.3,98.6,198.3
		 M98.6,237.7c-10.4,0-18.8-8.4-18.8-18.9S88.2,200,98.6,200s18.9,8.4,18.9,18.9C117.5,229.2,109.1,237.7,98.6,237.7 M98.6,201.9
		c-9.3,0-16.9,7.6-16.9,16.9c0,9.3,7.6,16.9,16.9,16.9c9.4,0,16.9-7.6,16.9-16.9S108,201.9,98.6,201.9 M98.6,233.5
		c-8.1,0-14.7-6.6-14.7-14.7c0-8.1,6.6-14.7,14.7-14.7c8.2,0,14.7,6.6,14.7,14.7C113.4,227,106.8,233.5,98.6,233.5 M98.6,205.5
		c-7.3,0-13.3,6-13.3,13.3c0,7.4,6,13.3,13.3,13.3c7.4,0,13.4-6,13.4-13.3S106,205.5,98.6,205.5"/>
	<path class="st5" d="M212.8,198.3c-11.3,0-20.5,9.2-20.5,20.5s9.2,20.5,20.5,20.5s20.5-9.2,20.5-20.5S224.1,198.3,212.8,198.3
		 M212.8,237.7c-10.4,0-18.9-8.4-18.9-18.9s8.5-18.9,18.9-18.9s18.8,8.4,18.8,18.9S223.2,237.7,212.8,237.7 M212.8,201.9
		c-9.4,0-16.9,7.6-16.9,16.9c0,9.3,7.6,16.9,16.9,16.9c9.3,0,16.9-7.6,16.9-16.9S222.1,201.9,212.8,201.9 M212.8,233.5
		c-8.1,0-14.7-6.6-14.7-14.7c0-8.1,6.6-14.7,14.7-14.7s14.7,6.6,14.7,14.7C227.5,227,220.9,233.5,212.8,233.5 M212.8,205.5
		c-7.4,0-13.3,6-13.3,13.3c0,7.4,6,13.3,13.3,13.3s13.3-6,13.3-13.3C226.2,211.5,220.2,205.5,212.8,205.5"/>
	<path class="st5" d="M377.3,106.8c48.4,1,85.1,20.7,105.2,40.8l-22.2-70.4c0-31.9-25.9-57.8-57.8-57.8H104.9
		C73,19.4,47.1,45.3,47,77.2v29.4C47,106.6,365.9,106.6,377.3,106.8"/>
	<path class="st6" d="M47,115.9v1.9V128h26.2h9.4v9.4v22.1c5.2-2,11.3-3.5,18.3-3.5c24.9,0,45.7,15.1,54.7,37l0.2-0.3
		c9.5-21.6,31.1-36.8,56.1-36.8c33.8,0,61.3,27.6,61.3,61.5c0,15.1-5.5,29-14.6,39.8h5.4l29.6-40l-43.7-59h53.4l17.1,23.1l17.1-23.1
		H391l-43.4,58.6c0.5,2.3,1.4,4.5,2.7,6.6c4,6.5,10.9,10.7,19,10.7l0,0H419h7.8c12.3,0,22.2-10,22.3-22.3v-77.3
		c-18.7-10.2-43.1-18-72-18.5C366,115.9,57,115.9,47,115.9"/>
	<polygon class="st7" points="40.5,115.9 40.5,115.9 40.4,115.9 	"/>
	<path class="st4" d="M471,149.6l5.8,5.3C475,153.1,473,151.4,471,149.6"/>
	<path class="st2" d="M471,149.6c-3.7-3.2-7.8-6.3-12.4-9.3v71.6c0,17.5-14.2,31.7-31.7,31.7H419h-49.9c-11.5,0-21.5-6.1-27.1-15.2
		c-2.6-4.2-4.1-8.8-4.5-14l34.6-46.7h-30l-21.8,29.5l-21.9-29.5h-30l36.8,49.6l-36.8,49.6h30l20.2-26.8l1.2,2
		c10.1,16.6,28.5,27.7,49.4,27.7h49.9h7.8c32,0,57.8-25.9,57.8-57.8v-47.3c-2.1-3.1-4.7-6.3-8-9.6L471,149.6z"/>
	<polygon class="st4" points="40.5,115.9 40.5,115.9 40.4,115.9 	"/>
	<path class="st8" d="M121.7,82.4c-5.1,6.5-12.4,9.5-19.7,9.5c-13.8,0-24.8-10.5-24.8-24.1s11-24.1,24.8-24.1c7.4,0,14.6,3,19.7,9.5
		l-7.1,5.3c-2.9-4.3-7.4-6.7-12.6-6.7c-8.3,0-15.8,7-15.8,16s7.5,16,15.8,16c5.2,0,9.9-2.4,12.8-6.4L121.7,82.4z"/>
	<path class="st8" d="M129.2,63.5c0-10.7,8.2-19.8,20.5-19.8s20.5,9.1,20.5,19.8v27.4h-8.5v-9.6h-24v9.6h-8.5V63.5L129.2,63.5z
		 M161.7,73.3v-7.9c0-8.5-5.3-13.5-12-13.5c-6.6,0-12,5.1-12,13.5v7.9H161.7z"/>
	<path class="st8" d="M180.9,57.9c0-7.6,6.1-14,15.2-14c4.8,0,8.8,1.8,11.5,4.5c2.7-2.7,6.7-4.5,11.5-4.5c9.2,0,15,6.4,15,14v33
		h-8.4V59.1c0-5.2-2.6-8.1-6.8-8.1c-4.1,0-7.2,2.9-7.2,8.1v31.8h-8.5V59.1c0-5.2-3.2-8.1-7.3-8.1s-6.7,2.9-6.7,8.1v31.8h-8.4
		L180.9,57.9L180.9,57.9z"/>
	<path class="st8" d="M242.9,90.9V44.7h22c10.3,0,16.6,6.8,16.6,15.8c0,9.1-6.3,15.4-16.6,15.4h-13.5v14.9L242.9,90.9L242.9,90.9z
		 M264.2,67.9c6,0,8.8-3.5,8.8-7.6s-2.7-7.5-8.8-7.5h-12.8v15.1H264.2L264.2,67.9z"/>
	<path class="st8" d="M288.5,44.7h8.5v46.2h-8.5V44.7z"/>
	<path class="st8" d="M308.2,63.5c0-10.7,8.2-19.8,20.5-19.8s20.5,9.1,20.5,19.8v27.4h-8.5V65.4c0-8.5-5.3-13.5-12-13.5
		c-6.6,0-12,5.1-12,13.5v25.5h-8.5V63.5z"/>
	<path class="st8" d="M382.4,63.9H403v18.4c-2.3,2.5-9.2,9.6-20.6,9.6c-13.8,0-24.8-10.5-24.8-24.1s10.7-24.1,24.5-24.1
		c7.4,0,14.9,3,20,9.5l-7.1,5.3c-2.9-4.3-7.7-6.7-13-6.7c-8.3,0-15.5,7-15.5,16s7.5,16,15.8,16c4.4,0,9.3-1.6,12.1-4.4l-0.1-7.5
		h-12.1v-8H382.4z"/>
	<text transform="matrix(1 0 0 1 383.1871 -1456.4668)" class="st10" style="font-family:'ArialMT'; font-size:28.8665px;">DU</text>
	<text transform="matrix(1 0 0 1 422.1271 -1456.4668)" class="st10" style="font-family:'ArialMT'; font-size:28.8665px;">R</text>
	<text transform="matrix(1 0 0 1 438.7571 -1456.4668)" class="st10" style="font-family:'ArialMT'; font-size:28.8665px;">AEDGE</text>
	<text transform="matrix(1 0 0 1 -315.1198 -1457.8545)" class="st10" style="font-family:'ArialMT'; font-size:28.8665px;">DU</text>
	<text transform="matrix(1 0 0 1 -276.1798 -1457.8545)" class="st10" style="font-family:'ArialMT'; font-size:28.8665px;">R</text>
	<text transform="matrix(1 0 0 1 -259.5498 -1457.8545)" class="st10" style="font-family:'ArialMT'; font-size:28.8665px;">AEDGE</text>
	<text transform="matrix(1 0 0 1 881.0665 -1457.8545)" class="st10" style="font-family:'ArialMT'; font-size:28.8665px;">DU</text>
	<text transform="matrix(1 0 0 1 920.0065 -1457.8545)" class="st10" style="font-family:'ArialMT'; font-size:28.8665px;">R</text>
	<text transform="matrix(1 0 0 1 936.6365 -1457.8545)" class="st10" style="font-family:'ArialMT'; font-size:28.8665px;">AEDGE</text>
	<text transform="matrix(1 0 0 1 270.6286 -1250.3037)" class="st10" style="font-family:'ArialMT'; font-size:37.3184px;">Availability </text>
	<text transform="matrix(1 0 0 1 24.5471 -1250.3037)" class="st10" style="font-family:'ArialMT'; font-size:37.3184px;">Our Prices</text>
	<text transform="matrix(1 0 0 1 526.4631 -1250.3037)" class="st10" style="font-family:'ArialMT'; font-size:37.3184px;">Contact Us</text>
	<text transform="matrix(1 0 0 1 -257.8333 -1250.3037)" class="st10" style="font-family:'ArialMT'; font-size:37.3184px;">Camper Vans</text>
	<text transform="matrix(1 0 0 1 -483.4095 -1250.3037)" class="st10" style="font-family:'ArialMT'; font-size:37.3184px;">about us</text>
	<text transform="matrix(1 0 0 1 -658.4656 -1250.3037)" class="st3" style="font-family:'ArialMT'; font-size:37.3184px;">home</text>
	<rect x="-1122.5" y="-1393.1" class="st11" width="1916.2" height="3595.3"/>
	<g>
		<g>
			<g>
				<defs>
					<rect id="SVGID_1_" x="495.1" y="-1548.6" width="89.3" height="63.4"/>
				</defs>
				<clipPath id="SVGID_2_">
					<use xlink:href="#SVGID_1_"  style="overflow:visible;"/>
				</clipPath>
				<g class="st12">
					<g>
						<g>
							<defs>
								<rect id="SVGID_3_" x="274.8" y="-1694.7" width="1364.9" height="72.1"/>
							</defs>
							<clipPath id="SVGID_4_">
								<use xlink:href="#SVGID_3_"  style="overflow:visible;"/>
							</clipPath>
							<g class="st13">
								<g>
									<g>
										<defs>
											<rect id="SVGID_5_" x="274.8" y="-1694.7" width="1364.9" height="72.1"/>
										</defs>
										<clipPath id="SVGID_6_">
											<use xlink:href="#SVGID_5_"  style="overflow:visible;"/>
										</clipPath>
										<g transform="matrix(1 0 0 1 0 0)" class="st14">
											
												<image style="overflow:visible;enable-background:new    ;" width="694" height="40" xlink:href="58499B19080C7A6.jpeg"  transform="matrix(1.8445 0 0 1.9186 317.2007 -1697.0203)">
											</image>
										</g>
									</g>
								</g>
							</g>
						</g>
						<g>
							<defs>
								<rect id="SVGID_7_" x="495.1" y="-1548.6" width="89.3" height="63.4"/>
							</defs>
							<clipPath id="SVGID_8_">
								<use xlink:href="#SVGID_7_"  style="overflow:visible;"/>
							</clipPath>
							<g class="st15">
								<g>
									<g>
										<defs>
											<rect id="SVGID_9_" x="495.1" y="-1548.6" width="89.3" height="63.4"/>
										</defs>
										<clipPath id="SVGID_10_">
											<use xlink:href="#SVGID_9_"  style="overflow:visible;"/>
										</clipPath>
										<g class="st16">
											<g>
												<g>
													<defs>
														<rect id="SVGID_11_" x="274.8" y="-1622.6" width="1364.9" height="72.1"/>
													</defs>
													<clipPath id="SVGID_12_">
														<use xlink:href="#SVGID_11_"  style="overflow:visible;"/>
													</clipPath>
													<g class="st17">
														<g>
															<g>
																<defs>
																	<rect id="SVGID_13_" x="274.8" y="-1622.6" width="1364.9" height="72.1"/>
																</defs>
																<clipPath id="SVGID_14_">
																	<use xlink:href="#SVGID_13_"  style="overflow:visible;"/>
																</clipPath>
																<g transform="matrix(1 0 0 1 0 0)" class="st18">
																	
																		<image style="overflow:visible;enable-background:new    ;" width="694" height="40" xlink:href="58499B19080C7AA.jpeg"  transform="matrix(1.8445 0 0 1.9186 317.2007 -1624.9307)">
																	</image>
																</g>
															</g>
														</g>
													</g>
												</g>
												<g>
													<defs>
														<rect id="SVGID_15_" x="495.1" y="-1548.6" width="89.3" height="63.4"/>
													</defs>
													<clipPath id="SVGID_16_">
														<use xlink:href="#SVGID_15_"  style="overflow:visible;"/>
													</clipPath>
													<g class="st19">
														<g>
															<g>
																<defs>
																	<rect id="SVGID_17_" x="495.1" y="-1548.6" width="89.3" height="63.4"/>
																</defs>
																<clipPath id="SVGID_18_">
																	<use xlink:href="#SVGID_17_"  style="overflow:visible;"/>
																</clipPath>
																<g class="st20">
																	<g>
																		<g>
																			<defs>
																				<rect id="SVGID_19_" x="274.8" y="-1550.5" width="1364.9" height="72.1"/>
																			</defs>
																			<clipPath id="SVGID_20_">
																				<use xlink:href="#SVGID_19_"  style="overflow:visible;"/>
																			</clipPath>
																			<g transform="matrix(1 0 0 1 0 0)" class="st21">
																				
																					<image style="overflow:visible;enable-background:new    ;" width="694" height="40" xlink:href="58499B19080C7AA.jpeg"  transform="matrix(1.8445 0 0 1.9186 317.2007 -1552.8411)">
																				</image>
																			</g>
																		</g>
																	</g>
																	<g>
																		<defs>
																			<rect id="SVGID_21_" x="495.1" y="-1548.6" width="89.3" height="63.4"/>
																		</defs>
																		<clipPath id="SVGID_22_">
																			<use xlink:href="#SVGID_21_"  style="overflow:visible;"/>
																		</clipPath>
																		<g class="st22">
																			<g>
																				<g>
																					<defs>
																						<rect id="SVGID_23_" x="495.1" y="-1548.6" width="89.3" height="63.4"/>
																					</defs>
																					<clipPath id="SVGID_24_">
																						<use xlink:href="#SVGID_23_"  style="overflow:visible;"/>
																					</clipPath>
																					<g class="st23">
																						<g>
																							<g>
																								<defs>
																									<rect id="SVGID_25_" x="274.8" y="-1478.4" width="1364.9" height="72.1"/>
																								</defs>
																								<clipPath id="SVGID_26_">
																									<use xlink:href="#SVGID_25_"  style="overflow:visible;"/>
																								</clipPath>
																								<g class="st24">
																									<g>
																										<g>
																											<defs>
																												<rect id="SVGID_27_" x="274.8" y="-1478.4" width="1364.9" height="72.1"/>
																											</defs>
																											<clipPath id="SVGID_28_">
																												<use xlink:href="#SVGID_27_"  style="overflow:visible;"/>
																											</clipPath>
																											<g transform="matrix(1 0 0 1 0 0)" class="st25">
																												
																													<image style="overflow:visible;enable-background:new    ;" width="694" height="40" xlink:href="58499B19080C7AE.jpeg"  transform="matrix(1.8445 0 0 1.9186 317.2007 -1480.7515)">
																												</image>
																											</g>
																										</g>
																									</g>
																								</g>
																							</g>
																							<g>
																								<defs>
																									<rect id="SVGID_29_" x="495.1" y="-1548.6" width="89.3" height="63.4"/>
																								</defs>
																								<clipPath id="SVGID_30_">
																									<use xlink:href="#SVGID_29_"  style="overflow:visible;"/>
																								</clipPath>
																								<g class="st26">
																									<g>
																										<g>
																											<defs>
																												<rect id="SVGID_31_" x="495.1" y="-1548.6" width="89.3" height="63.4"/>
																											</defs>
																											<clipPath id="SVGID_32_">
																												<use xlink:href="#SVGID_31_"  style="overflow:visible;"/>
																											</clipPath>
																										</g>
																									</g>
																								</g>
																							</g>
																						</g>
																					</g>
																				</g>
																			</g>
																		</g>
																		<rect x="221.5" y="-1478.4" class="st27" width="1364.9" height="72.1"/>
																		<rect x="221.5" y="-1406.3" class="st27" width="1364.9" height="72.1"/>
																		<rect x="221.5" y="-1334.2" class="st27" width="1364.9" height="72.1"/>
																		<rect x="221.5" y="-1262.2" class="st27" width="1364.9" height="72.1"/>
																		<rect x="221.5" y="-1190.1" class="st27" width="1364.9" height="54.1"/>
																	</g>
																</g>
															</g>
														</g>
													</g>
												</g>
											</g>
										</g>
									</g>
								</g>
							</g>
						</g>
					</g>
				</g>
			</g>
		</g>
	</g>
	<rect x="274.8" y="-1406.3" class="st28" width="1364.9" height="72.1"/>
	<rect x="495.1" y="-1548.6" class="st28" width="89.3" height="63.4"/>
</g>
</svg>
